<svg width="17" height="24" viewBox="0 0 17 24" fill="none" xmlns="http://www.w3.org/2000/svg">
<path d="M8.5 11.4C7.69488 11.4 6.92273 11.0839 6.35343 10.5213C5.78412 9.95871 5.46429 9.19565 5.46429 8.4C5.46429 7.60435 5.78412 6.84129 6.35343 6.27868C6.92273 5.71607 7.69488 5.4 8.5 5.4C9.30512 5.4 10.0773 5.71607 10.6466 6.27868C11.2159 6.84129 11.5357 7.60435 11.5357 8.4C11.5357 8.79397 11.4572 9.18407 11.3046 9.54805C11.1521 9.91203 10.9285 10.2427 10.6466 10.5213C10.3647 10.7999 10.03 11.0209 9.66172 11.1716C9.29341 11.3224 8.89866 11.4 8.5 11.4ZM8.5 0C6.24566 0 4.08365 0.884997 2.48959 2.4603C0.895533 4.03561 0 6.17218 0 8.4C0 14.7 8.5 24 8.5 24C8.5 24 17 14.7 17 8.4C17 6.17218 16.1045 4.03561 14.5104 2.4603C12.9163 0.884997 10.7543 0 8.5 0Z" fill="#90A1FB"/>
</svg>
