<svg width="400" height="393" viewBox="0 0 400 393" fill="none" xmlns="http://www.w3.org/2000/svg">
<path style="mix-blend-mode:color-burn" d="M325.422 300.617C281.085 384.852 176.75 417.229 92.5157 372.892C8.28116 328.555 -24.0958 224.22 20.2409 139.985C64.5776 55.7509 168.913 23.374 253.147 67.7107C337.382 112.047 369.759 216.383 325.422 300.617Z" fill="url(#paint0_radial_4533_12073)"/>
<path d="M322.552 250.062C289.478 312.9 211.725 337.122 148.775 303.988C85.8241 270.854 61.7147 193.161 94.8487 130.21C127.983 67.2595 205.788 43.2093 268.626 76.2841C331.464 109.359 355.627 187.223 322.552 250.062Z" fill="url(#paint1_radial_4533_12073)"/>
<path style="mix-blend-mode:screen" d="M312.262 172.891C297.384 201.157 252.184 206.704 211.306 185.187C170.427 163.671 149.411 123.272 164.288 95.0058C179.166 66.7399 224.366 61.1933 265.245 82.7097C306.123 104.226 327.139 144.626 312.262 172.891Z" fill="url(#paint2_linear_4533_12073)"/>
<defs>
<radialGradient id="paint0_radial_4533_12073" cx="0" cy="0" r="1" gradientUnits="userSpaceOnUse" gradientTransform="translate(172.944 220.361) rotate(27.76) scale(172.437 172.437)">
<stop stop-color="#656A6E"/>
<stop offset="0.35" stop-color="#A6A9AB"/>
<stop offset="0.65" stop-color="#D6D7D8"/>
<stop offset="0.87" stop-color="#F3F4F4"/>
<stop offset="1" stop-color="white"/>
</radialGradient>
<radialGradient id="paint1_radial_4533_12073" cx="0" cy="0" r="1" gradientUnits="userSpaceOnUse" gradientTransform="translate(197.948 208.924) rotate(27.76) scale(154.366)">
<stop offset="0.28"/>
<stop offset="0.68" stop-color="#323232"/>
<stop offset="1" stop-color="#9E9E9E"/>
</radialGradient>
<linearGradient id="paint2_linear_4533_12073" x1="81.798" y1="218.121" x2="371.144" y2="62.6609" gradientUnits="userSpaceOnUse">
<stop offset="0.08"/>
<stop offset="0.21"/>
<stop offset="0.36" stop-color="#070707"/>
<stop offset="0.51" stop-color="#1C1C1C"/>
<stop offset="0.67" stop-color="#272727"/>
<stop offset="0.83" stop-color="#4D4D4D"/>
<stop offset="0.99" stop-color="#7C7C7C"/>
<stop offset="1" stop-color="#808080"/>
</linearGradient>
</defs>
</svg>
