<svg width="128" height="132" viewBox="0 0 128 132" fill="none" xmlns="http://www.w3.org/2000/svg">
<path style="mix-blend-mode:color-burn" d="M127.151 68.121C127.151 103.141 98.7321 131.56 63.7121 131.56C28.6921 131.56 0.273438 103.141 0.273438 68.121C0.273438 33.101 28.6921 4.68243 63.7121 4.68243C98.7321 4.68243 127.151 33.101 127.151 68.121Z" fill="url(#paint0_radial_4533_12105)"/>
<path d="M117.553 52.1509C117.553 78.2755 96.3913 99.4841 70.2199 99.4841C44.0485 99.4841 22.8867 78.3223 22.8867 52.1509C22.8867 25.9796 44.0954 4.81775 70.2199 4.81775C96.3444 4.81775 117.553 26.0264 117.553 52.1509Z" fill="url(#paint1_radial_4533_12105)"/>
<path style="mix-blend-mode:screen" d="M100.98 28.7908C100.98 40.5421 87.2155 50.093 70.2205 50.093C53.2255 50.093 39.4609 40.5421 39.4609 28.7908C39.4609 17.0394 53.2255 7.48846 70.2205 7.48846C87.2155 7.48846 100.98 17.0394 100.98 28.7908Z" fill="url(#paint2_linear_4533_12105)"/>
<defs>
<radialGradient id="paint0_radial_4533_12105" cx="0" cy="0" r="1" gradientUnits="userSpaceOnUse" gradientTransform="translate(63.7589 68.1211) scale(63.4386 63.4386)">
<stop stop-color="#656A6E"/>
<stop offset="0.35" stop-color="#A6A9AB"/>
<stop offset="0.65" stop-color="#D6D7D8"/>
<stop offset="0.87" stop-color="#F3F4F4"/>
<stop offset="1" stop-color="white"/>
</radialGradient>
<radialGradient id="paint1_radial_4533_12105" cx="0" cy="0" r="1" gradientUnits="userSpaceOnUse" gradientTransform="translate(69.939 60.11) scale(56.7905)">
<stop offset="0.28"/>
<stop offset="0.68" stop-color="#323232"/>
<stop offset="1" stop-color="#9E9E9E"/>
</radialGradient>
<linearGradient id="paint2_linear_4533_12105" x1="33.7023" y1="83.0062" x2="101.261" y2="-17.1847" gradientUnits="userSpaceOnUse">
<stop offset="0.08"/>
<stop offset="0.21"/>
<stop offset="0.36" stop-color="#070707"/>
<stop offset="0.51" stop-color="#1C1C1C"/>
<stop offset="0.67" stop-color="#272727"/>
<stop offset="0.83" stop-color="#4D4D4D"/>
<stop offset="0.99" stop-color="#7C7C7C"/>
<stop offset="1" stop-color="#808080"/>
</linearGradient>
</defs>
</svg>
