<svg width="521" height="540" viewBox="0 0 521 540" fill="none" xmlns="http://www.w3.org/2000/svg">
<path style="mix-blend-mode:color-burn" d="M520.292 279.205C520.292 422.753 403.804 539.242 260.256 539.242C116.708 539.242 0.21875 422.753 0.21875 279.205C0.21875 135.657 116.708 19.1687 260.256 19.1687C403.804 19.1687 520.292 135.657 520.292 279.205Z" fill="url(#paint0_radial_4533_12143)"/>
<path d="M480.951 213.756C480.951 320.841 394.208 407.776 286.931 407.776C179.654 407.776 92.9111 321.033 92.9111 213.756C92.9111 106.479 179.846 19.7361 286.931 19.7361C394.017 19.7361 480.951 106.671 480.951 213.756Z" fill="url(#paint1_radial_4533_12143)"/>
<path style="mix-blend-mode:screen" d="M413.018 118.004C413.018 166.173 356.597 205.322 286.934 205.322C217.271 205.322 160.85 166.173 160.85 118.004C160.85 69.8344 217.271 30.6849 286.934 30.6849C356.597 30.6849 413.018 69.8344 413.018 118.004Z" fill="url(#paint2_linear_4533_12143)"/>
<defs>
<radialGradient id="paint0_radial_4533_12143" cx="0" cy="0" r="1" gradientUnits="userSpaceOnUse" gradientTransform="translate(260.447 279.206) scale(260.037 260.037)">
<stop stop-color="#656A6E"/>
<stop offset="0.35" stop-color="#A6A9AB"/>
<stop offset="0.65" stop-color="#D6D7D8"/>
<stop offset="0.87" stop-color="#F3F4F4"/>
<stop offset="1" stop-color="white"/>
</radialGradient>
<radialGradient id="paint1_radial_4533_12143" cx="0" cy="0" r="1" gradientUnits="userSpaceOnUse" gradientTransform="translate(285.78 246.381) scale(232.786)">
<stop offset="0.28"/>
<stop offset="0.68" stop-color="#323232"/>
<stop offset="1" stop-color="#9E9E9E"/>
</radialGradient>
<linearGradient id="paint2_linear_4533_12143" x1="137.245" y1="340.234" x2="414.17" y2="-70.4512" gradientUnits="userSpaceOnUse">
<stop offset="0.08"/>
<stop offset="0.21"/>
<stop offset="0.36" stop-color="#070707"/>
<stop offset="0.51" stop-color="#1C1C1C"/>
<stop offset="0.67" stop-color="#272727"/>
<stop offset="0.83" stop-color="#4D4D4D"/>
<stop offset="0.99" stop-color="#7C7C7C"/>
<stop offset="1" stop-color="#808080"/>
</linearGradient>
</defs>
</svg>
