<svg width="346" height="342" viewBox="0 0 346 342" fill="none" xmlns="http://www.w3.org/2000/svg">
<!-- <path style="mix-blend-mode:color-burn" d="M369.64 186.881C403.268 285.043 350.899 391.99 252.737 425.617C154.575 459.244 47.6284 406.875 14.0009 308.713C-19.6265 210.551 32.743 103.605 130.905 69.9773C229.067 36.3499 336.013 88.7194 369.64 186.881Z" fill="url(#paint0_radial_4533_12065)"/> -->
<path d="M327.405 151.336C352.491 224.564 313.539 304.332 240.18 329.463C166.822 354.594 87.1842 315.597 62.0535 242.238C36.9229 168.879 76.0508 89.197 149.278 64.1113C222.506 39.0256 302.32 78.1086 327.405 151.336Z" fill="url(#paint1_radial_4533_12065)"/>
<path style="mix-blend-mode:screen" d="M258.52 101.773C269.804 134.712 240.392 174.7 192.755 191.02C145.118 207.339 97.3643 193.785 86.0802 160.845C74.7961 127.906 104.207 87.9174 151.845 71.5982C199.482 55.279 247.235 68.8333 258.52 101.773Z" fill="url(#paint2_linear_4533_12065)"/>
<defs>
<radialGradient id="paint0_radial_4533_12065" cx="0" cy="0" r="1" gradientUnits="userSpaceOnUse" gradientTransform="translate(191.952 247.752) rotate(-18.91) scale(187.964 187.964)">
<stop stop-color="#656A6E"/>
<stop offset="0.35" stop-color="#A6A9AB"/>
<stop offset="0.65" stop-color="#D6D7D8"/>
<stop offset="0.87" stop-color="#F3F4F4"/>
<stop offset="1" stop-color="white"/>
</radialGradient>
<radialGradient id="paint1_radial_4533_12065" cx="0" cy="0" r="1" gradientUnits="userSpaceOnUse" gradientTransform="translate(201.585 219.366) rotate(-18.91) scale(168.266)">
<stop offset="0.28"/>
<stop offset="0.68" stop-color="#323232"/>
<stop offset="1" stop-color="#9E9E9E"/>
</radialGradient>
<linearGradient id="paint2_linear_4533_12065" x1="121.998" y1="318.342" x2="215.16" y2="-27.3673" gradientUnits="userSpaceOnUse">
<stop offset="0.08"/>
<stop offset="0.21"/>
<stop offset="0.36" stop-color="#070707"/>
<stop offset="0.51" stop-color="#1C1C1C"/>
<stop offset="0.67" stop-color="#272727"/>
<stop offset="0.83" stop-color="#4D4D4D"/>
<stop offset="0.99" stop-color="#7C7C7C"/>
<stop offset="1" stop-color="#808080"/>
</linearGradient>
</defs>
</svg>
