<svg width="185" height="201" viewBox="0 0 185 201" fill="none" xmlns="http://www.w3.org/2000/svg">
<path style="mix-blend-mode:color-burn" d="M183.284 96.6448C190.098 146.844 154.892 193.111 104.692 199.926C54.4925 206.74 8.22567 171.534 1.41106 121.334C-5.40356 71.1345 29.8032 24.8677 80.0028 18.0531C130.202 11.2385 176.469 46.4452 183.284 96.6448Z" fill="url(#paint0_radial_4533_12081)"/>
<path d="M166.419 75.6233C171.503 113.072 145.296 147.591 107.78 152.684C70.2646 157.777 35.8122 131.56 30.7195 94.0446C25.6267 56.5291 51.9104 22.0676 89.3587 16.984C126.807 11.9003 161.336 38.1749 166.419 75.6233Z" fill="url(#paint1_radial_4533_12081)"/>
<path style="mix-blend-mode:screen" d="M138.116 45.3632C140.403 62.2083 122.531 78.5775 98.1691 81.8846C73.8075 85.1917 52.2181 74.1794 49.9314 57.3344C47.6447 40.4893 65.517 24.12 89.8786 20.813C114.24 17.5059 135.829 28.5182 138.116 45.3632Z" fill="url(#paint2_linear_4533_12081)"/>
<defs>
<radialGradient id="paint0_radial_4533_12081" cx="0" cy="0" r="1" gradientUnits="userSpaceOnUse" gradientTransform="translate(92.4145 108.98) rotate(-7.73067) scale(91.7704 91.7704)">
<stop stop-color="#656A6E"/>
<stop offset="0.35" stop-color="#A6A9AB"/>
<stop offset="0.65" stop-color="#D6D7D8"/>
<stop offset="0.87" stop-color="#F3F4F4"/>
<stop offset="1" stop-color="white"/>
</radialGradient>
<radialGradient id="paint1_radial_4533_12081" cx="0" cy="0" r="1" gradientUnits="userSpaceOnUse" gradientTransform="translate(99.7155 96.2976) rotate(-7.73067) scale(82.1532)">
<stop offset="0.28"/>
<stop offset="0.68" stop-color="#323232"/>
<stop offset="1" stop-color="#9E9E9E"/>
</radialGradient>
<linearGradient id="paint2_linear_4533_12081" x1="52.2265" y1="136.17" x2="129.572" y2="-20.5952" gradientUnits="userSpaceOnUse">
<stop offset="0.08"/>
<stop offset="0.21"/>
<stop offset="0.36" stop-color="#070707"/>
<stop offset="0.51" stop-color="#1C1C1C"/>
<stop offset="0.67" stop-color="#272727"/>
<stop offset="0.83" stop-color="#4D4D4D"/>
<stop offset="0.99" stop-color="#7C7C7C"/>
<stop offset="1" stop-color="#808080"/>
</linearGradient>
</defs>
</svg>
