<svg width="106" height="112" viewBox="0 0 106 112" fill="none" xmlns="http://www.w3.org/2000/svg">
<!-- <path style="mix-blend-mode:color-burn" d="M105.622 57.3367C106.616 86.3771 83.8561 110.75 54.8157 111.744C25.7752 112.737 1.40251 89.9777 0.408693 60.9373C-0.585123 31.8968 22.1746 7.52415 51.2151 6.53033C80.2555 5.53652 104.628 28.2963 105.622 57.3367Z" fill="url(#paint0_radial_4533_12093)"/> -->
<path d="M97.2108 44.3686C97.9522 66.0325 81.0056 84.2204 59.3029 84.9631C37.6002 85.7058 19.4512 68.7578 18.7085 47.0551C17.9658 25.3525 34.9526 7.20209 56.6164 6.46071C78.2803 5.71933 96.4695 22.7048 97.2108 44.3686Z" fill="url(#paint1_radial_4533_12093)"/>
<path style="mix-blend-mode:screen" d="M82.804 25.4654C83.1375 35.2102 71.9942 43.5209 57.9011 44.0032C43.8079 44.4855 32.1226 36.956 31.7891 27.2112C31.4556 17.4663 42.5989 9.15559 56.692 8.67329C70.7852 8.191 82.4705 15.7205 82.804 25.4654Z" fill="url(#paint2_linear_4533_12093)"/>
<defs>
<radialGradient id="paint0_radial_4533_12093" cx="0" cy="0" r="1" gradientUnits="userSpaceOnUse" gradientTransform="translate(53.0542 59.1357) rotate(-1.96) scale(52.6374 52.6375)">
<stop stop-color="#656A6E"/>
<stop offset="0.35" stop-color="#A6A9AB"/>
<stop offset="0.65" stop-color="#D6D7D8"/>
<stop offset="0.87" stop-color="#F3F4F4"/>
<stop offset="1" stop-color="white"/>
</radialGradient>
<radialGradient id="paint1_radial_4533_12093" cx="0" cy="0" r="1" gradientUnits="userSpaceOnUse" gradientTransform="translate(57.9526 52.32) rotate(-1.96) scale(47.1212)">
<stop offset="0.28"/>
<stop offset="0.68" stop-color="#323232"/>
<stop offset="1" stop-color="#9E9E9E"/>
</radialGradient>
<linearGradient id="paint2_linear_4533_12093" x1="28.5523" y1="72.3329" x2="81.7322" y2="-12.6679" gradientUnits="userSpaceOnUse">
<stop offset="0.08"/>
<stop offset="0.21"/>
<stop offset="0.36" stop-color="#070707"/>
<stop offset="0.51" stop-color="#1C1C1C"/>
<stop offset="0.67" stop-color="#272727"/>
<stop offset="0.83" stop-color="#4D4D4D"/>
<stop offset="0.99" stop-color="#7C7C7C"/>
<stop offset="1" stop-color="#808080"/>
</linearGradient>
</defs>
</svg>
