<svg width="333" height="369" viewBox="0 0 333 369" fill="none" xmlns="http://www.w3.org/2000/svg">
<path style="mix-blend-mode:color-burn" d="M326.178 169.838C345.241 258.594 288.685 346.089 199.929 365.152C111.173 384.214 23.6785 327.658 4.61589 238.902C-14.4467 150.146 42.1093 62.6517 130.865 43.5891C219.621 24.5265 307.116 81.0824 326.178 169.838Z" fill="url(#paint0_radial_4533_12109)"/>
<path d="M293.164 134.6C307.384 200.811 265.296 266.082 198.966 280.328C132.636 294.574 67.4838 252.46 53.2378 186.13C38.9918 119.8 81.2246 54.6225 147.436 40.402C213.647 26.1814 278.943 68.3888 293.164 134.6Z" fill="url(#paint1_radial_4533_12109)"/>
<path style="mix-blend-mode:screen" d="M238.443 84.41C244.839 114.193 215.153 145.892 172.08 155.143C129.007 164.394 88.923 147.68 82.5263 117.897C76.1296 88.114 105.816 56.4152 148.889 47.1642C191.962 37.9132 232.046 54.6269 238.443 84.41Z" fill="url(#paint2_linear_4533_12109)"/>
<defs>
<radialGradient id="paint0_radial_4533_12109" cx="0" cy="0" r="1" gradientUnits="userSpaceOnUse" gradientTransform="translate(165.516 204.345) rotate(-12.1216) scale(164.448 164.448)">
<stop stop-color="#656A6E"/>
<stop offset="0.35" stop-color="#A6A9AB"/>
<stop offset="0.65" stop-color="#D6D7D8"/>
<stop offset="0.87" stop-color="#F3F4F4"/>
<stop offset="1" stop-color="white"/>
</radialGradient>
<radialGradient id="paint1_radial_4533_12109" cx="0" cy="0" r="1" gradientUnits="userSpaceOnUse" gradientTransform="translate(176.821 180.69) rotate(-12.1216) scale(147.214)">
<stop offset="0.28"/>
<stop offset="0.68" stop-color="#323232"/>
<stop offset="1" stop-color="#9E9E9E"/>
</radialGradient>
<linearGradient id="paint2_linear_4533_12109" x1="97.4428" y1="258.437" x2="214.128" y2="-32.2648" gradientUnits="userSpaceOnUse">
<stop offset="0.08"/>
<stop offset="0.21"/>
<stop offset="0.36" stop-color="#070707"/>
<stop offset="0.51" stop-color="#1C1C1C"/>
<stop offset="0.67" stop-color="#272727"/>
<stop offset="0.83" stop-color="#4D4D4D"/>
<stop offset="0.99" stop-color="#7C7C7C"/>
<stop offset="1" stop-color="#808080"/>
</linearGradient>
</defs>
</svg>
