<svg width="551" height="570" viewBox="0 0 551 570" fill="none" xmlns="http://www.w3.org/2000/svg">
<path style="mix-blend-mode:color-burn" d="M550.474 295.072C550.474 446.768 427.373 569.869 275.677 569.869C123.981 569.869 0.879883 446.768 0.879883 295.072C0.879883 143.376 123.981 20.2748 275.677 20.2748C427.373 20.2748 550.474 143.376 550.474 295.072Z" fill="url(#paint0_radial_4533_12069)"/>
<path d="M508.899 225.907C508.899 339.071 417.232 430.94 303.866 430.94C190.5 430.94 98.833 339.273 98.833 225.907C98.833 112.541 190.702 20.874 303.866 20.874C417.03 20.874 508.899 112.743 508.899 225.907Z" fill="url(#paint1_radial_4533_12069)"/>
<path style="mix-blend-mode:screen" d="M437.109 124.72C437.109 175.623 377.485 216.995 303.868 216.995C230.251 216.995 170.627 175.623 170.627 124.72C170.627 73.8163 230.251 32.4446 303.868 32.4446C377.485 32.4446 437.109 73.8163 437.109 124.72Z" fill="url(#paint2_linear_4533_12069)"/>
<defs>
<radialGradient id="paint0_radial_4533_12069" cx="0" cy="0" r="1" gradientUnits="userSpaceOnUse" gradientTransform="translate(275.88 295.072) scale(274.797 274.797)">
<stop stop-color="#656A6E"/>
<stop offset="0.35" stop-color="#A6A9AB"/>
<stop offset="0.65" stop-color="#D6D7D8"/>
<stop offset="0.87" stop-color="#F3F4F4"/>
<stop offset="1" stop-color="white"/>
</radialGradient>
<radialGradient id="paint1_radial_4533_12069" cx="0" cy="0" r="1" gradientUnits="userSpaceOnUse" gradientTransform="translate(302.649 260.383) scale(245.999)">
<stop offset="0.28"/>
<stop offset="0.68" stop-color="#323232"/>
<stop offset="1" stop-color="#9E9E9E"/>
</radialGradient>
<linearGradient id="paint2_linear_4533_12069" x1="145.682" y1="359.564" x2="438.326" y2="-74.4322" gradientUnits="userSpaceOnUse">
<stop offset="0.08"/>
<stop offset="0.21"/>
<stop offset="0.36" stop-color="#070707"/>
<stop offset="0.51" stop-color="#1C1C1C"/>
<stop offset="0.67" stop-color="#272727"/>
<stop offset="0.83" stop-color="#4D4D4D"/>
<stop offset="0.99" stop-color="#7C7C7C"/>
<stop offset="1" stop-color="#808080"/>
</linearGradient>
</defs>
</svg>
