<svg width="160" height="160" viewBox="0 0 160 160" fill="none" xmlns="http://www.w3.org/2000/svg">
<path d="M146.667 39.9978C146.667 54.7257 134.727 66.6651 119.999 66.6651C105.271 66.6651 93.332 54.7257 93.332 39.9978C93.332 25.2699 105.271 13.3306 119.999 13.3306C134.727 13.3306 146.667 25.2699 146.667 39.9978Z" fill="#27292F"/>
<path d="M147.212 40.0443C147.212 54.9694 135.122 67.0859 120.171 67.0859C105.219 67.0859 93.1289 54.9961 93.1289 40.0443C93.1289 25.0925 105.245 13.0027 120.171 13.0027C135.096 13.0027 147.212 25.1193 147.212 40.0443Z" fill="url(#paint0_radial_7485_2176)"/>
<path style="mix-blend-mode:screen" d="M137.744 26.6967C137.744 33.4103 129.88 38.8667 120.171 38.8667C110.461 38.8667 102.598 33.4103 102.598 26.6967C102.598 19.9831 110.461 14.5266 120.171 14.5266C129.88 14.5266 137.744 19.9831 137.744 26.6967Z" fill="url(#paint1_linear_7485_2176)"/>
<defs>
<radialGradient id="paint0_radial_7485_2176" cx="0" cy="0" r="1" gradientUnits="userSpaceOnUse" gradientTransform="translate(120.01 44.5914) scale(32.4446)">
<stop offset="0.28"/>
<stop offset="0.68" stop-color="#323232"/>
<stop offset="1" stop-color="#9E9E9E"/>
</radialGradient>
<linearGradient id="paint1_linear_7485_2176" x1="99.3077" y1="57.6702" x2="137.904" y2="0.430723" gradientUnits="userSpaceOnUse">
<stop offset="0.08"/>
<stop offset="0.21"/>
<stop offset="0.36" stop-color="#070707"/>
<stop offset="0.51" stop-color="#1C1C1C"/>
<stop offset="0.67" stop-color="#272727"/>
<stop offset="0.83" stop-color="#4D4D4D"/>
<stop offset="0.99" stop-color="#7C7C7C"/>
<stop offset="1" stop-color="#808080"/>
</linearGradient>
</defs>
</svg>
