<svg width="612" height="634" viewBox="0 0 612 634" fill="none" xmlns="http://www.w3.org/2000/svg">
<path style="mix-blend-mode:color-burn" d="M611.799 328.026C611.799 496.666 474.948 633.517 306.308 633.517C137.668 633.517 0.817383 496.666 0.817383 328.026C0.817383 159.386 137.668 22.5353 306.308 22.5353C474.948 22.5353 611.799 159.386 611.799 328.026Z" fill="url(#paint0_radial_4533_12175)"/>
<path d="M565.584 251.149C565.584 376.952 463.679 479.083 337.649 479.083C211.62 479.083 109.715 377.178 109.715 251.149C109.715 125.12 211.846 23.2143 337.649 23.2143C463.453 23.2143 565.584 125.345 565.584 251.149Z" fill="url(#paint1_radial_4533_12175)"/>
<path style="mix-blend-mode:screen" d="M485.774 138.644C485.774 195.233 419.49 241.226 337.65 241.226C255.81 241.226 189.526 195.233 189.526 138.644C189.526 82.0549 255.81 36.0621 337.65 36.0621C419.49 36.0621 485.774 82.0549 485.774 138.644Z" fill="url(#paint2_linear_4533_12175)"/>
<defs>
<radialGradient id="paint0_radial_4533_12175" cx="0" cy="0" r="1" gradientUnits="userSpaceOnUse" gradientTransform="translate(306.534 328.026) scale(305.491 305.491)">
<stop stop-color="#656A6E"/>
<stop offset="0.35" stop-color="#A6A9AB"/>
<stop offset="0.65" stop-color="#D6D7D8"/>
<stop offset="0.87" stop-color="#F3F4F4"/>
<stop offset="1" stop-color="white"/>
</radialGradient>
<radialGradient id="paint1_radial_4533_12175" cx="0" cy="0" r="1" gradientUnits="userSpaceOnUse" gradientTransform="translate(336.297 289.476) scale(273.476)">
<stop offset="0.28"/>
<stop offset="0.68" stop-color="#323232"/>
<stop offset="1" stop-color="#9E9E9E"/>
</radialGradient>
<linearGradient id="paint2_linear_4533_12175" x1="161.795" y1="399.72" x2="487.126" y2="-82.7525" gradientUnits="userSpaceOnUse">
<stop offset="0.08"/>
<stop offset="0.21"/>
<stop offset="0.36" stop-color="#070707"/>
<stop offset="0.51" stop-color="#1C1C1C"/>
<stop offset="0.67" stop-color="#272727"/>
<stop offset="0.83" stop-color="#4D4D4D"/>
<stop offset="0.99" stop-color="#7C7C7C"/>
<stop offset="1" stop-color="#808080"/>
</linearGradient>
</defs>
</svg>
