<svg width="175" height="191" viewBox="0 0 175 191" fill="none" xmlns="http://www.w3.org/2000/svg">
<path style="mix-blend-mode:color-burn" d="M173.75 91.9582C180.198 139.462 146.882 183.245 99.3776 189.694C51.8733 196.143 8.09054 162.826 1.64181 115.322C-4.80692 67.8176 28.5096 24.0349 76.0139 17.5861C123.518 11.1374 167.301 44.4539 173.75 91.9582Z" fill="url(#paint0_radial_4533_12155)"/>
<path d="M157.791 72.0653C162.602 107.503 137.802 140.169 102.3 144.988C66.7992 149.808 34.1966 124.999 29.3773 89.4976C24.558 53.9964 49.4304 21.3851 84.8681 16.5744C120.306 11.7637 152.981 36.6276 157.791 72.0653Z" fill="url(#paint1_radial_4533_12155)"/>
<path style="mix-blend-mode:screen" d="M131.008 43.4296C133.171 59.3702 116.259 74.8606 93.2052 77.9901C70.1517 81.1196 49.7214 70.6986 47.5575 54.758C45.3935 38.8174 62.3063 23.327 85.3598 20.1975C108.413 17.0679 128.844 27.489 131.008 43.4296Z" fill="url(#paint2_linear_4533_12155)"/>
<defs>
<radialGradient id="paint0_radial_4533_12155" cx="0" cy="0" r="1" gradientUnits="userSpaceOnUse" gradientTransform="translate(87.7592 103.631) rotate(-7.73067) scale(86.8431 86.8432)">
<stop stop-color="#656A6E"/>
<stop offset="0.35" stop-color="#A6A9AB"/>
<stop offset="0.65" stop-color="#D6D7D8"/>
<stop offset="0.87" stop-color="#F3F4F4"/>
<stop offset="1" stop-color="white"/>
</radialGradient>
<radialGradient id="paint1_radial_4533_12155" cx="0" cy="0" r="1" gradientUnits="userSpaceOnUse" gradientTransform="translate(94.6688 91.6296) rotate(-7.73067) scale(77.7423)">
<stop offset="0.28"/>
<stop offset="0.68" stop-color="#323232"/>
<stop offset="1" stop-color="#9E9E9E"/>
</radialGradient>
<linearGradient id="paint2_linear_4533_12155" x1="49.7294" y1="129.361" x2="122.922" y2="-18.9874" gradientUnits="userSpaceOnUse">
<stop offset="0.08"/>
<stop offset="0.21"/>
<stop offset="0.36" stop-color="#070707"/>
<stop offset="0.51" stop-color="#1C1C1C"/>
<stop offset="0.67" stop-color="#272727"/>
<stop offset="0.83" stop-color="#4D4D4D"/>
<stop offset="0.99" stop-color="#7C7C7C"/>
<stop offset="1" stop-color="#808080"/>
</linearGradient>
</defs>
</svg>
