<svg width="112" height="115" viewBox="0 0 112 115" fill="none" xmlns="http://www.w3.org/2000/svg">
<path style="mix-blend-mode:color-burn" d="M111.033 59.2293C111.033 89.6782 86.3238 114.387 55.8749 114.387C25.426 114.387 0.716797 89.6782 0.716797 59.2293C0.716797 28.7804 25.426 4.07123 55.8749 4.07123C86.3238 4.07123 111.033 28.7804 111.033 59.2293Z" fill="url(#paint0_radial_4533_12061)"/>
<path d="M102.689 45.3463C102.689 68.0608 84.289 86.5011 61.5338 86.5011C38.7785 86.5011 20.3789 68.1015 20.3789 45.3463C20.3789 22.591 38.8192 4.19141 61.5338 4.19141C84.2483 4.19141 102.689 22.6317 102.689 45.3463Z" fill="url(#paint1_radial_4533_12061)"/>
<path style="mix-blend-mode:screen" d="M88.2791 25.0337C88.2791 35.2512 76.3113 43.5554 61.5346 43.5554C46.7579 43.5554 34.79 35.2512 34.79 25.0337C34.79 14.8162 46.7579 6.51196 61.5346 6.51196C76.3113 6.51196 88.2791 14.8162 88.2791 25.0337Z" fill="url(#paint2_linear_4533_12061)"/>
<defs>
<radialGradient id="paint0_radial_4533_12061" cx="0" cy="0" r="1" gradientUnits="userSpaceOnUse" gradientTransform="translate(55.9156 59.2293) scale(55.1581 55.1581)">
<stop stop-color="#656A6E"/>
<stop offset="0.35" stop-color="#A6A9AB"/>
<stop offset="0.65" stop-color="#D6D7D8"/>
<stop offset="0.87" stop-color="#F3F4F4"/>
<stop offset="1" stop-color="white"/>
</radialGradient>
<radialGradient id="paint1_radial_4533_12061" cx="0" cy="0" r="1" gradientUnits="userSpaceOnUse" gradientTransform="translate(61.2895 52.2665) scale(49.3777)">
<stop offset="0.28"/>
<stop offset="0.68" stop-color="#323232"/>
<stop offset="1" stop-color="#9E9E9E"/>
</radialGradient>
<linearGradient id="paint2_linear_4533_12061" x1="29.7831" y1="72.1725" x2="88.5234" y2="-14.9407" gradientUnits="userSpaceOnUse">
<stop offset="0.08"/>
<stop offset="0.21"/>
<stop offset="0.36" stop-color="#070707"/>
<stop offset="0.51" stop-color="#1C1C1C"/>
<stop offset="0.67" stop-color="#272727"/>
<stop offset="0.83" stop-color="#4D4D4D"/>
<stop offset="0.99" stop-color="#7C7C7C"/>
<stop offset="1" stop-color="#808080"/>
</linearGradient>
</defs>
</svg>
