<svg width="71" height="73" viewBox="0 0 71 73" fill="none" xmlns="http://www.w3.org/2000/svg">
<path style="mix-blend-mode:color-burn" d="M70.7117 37.6105C70.7117 56.9463 55.0208 72.6372 35.685 72.6372C16.3492 72.6372 0.658203 56.9463 0.658203 37.6105C0.658203 18.2747 16.3492 2.58374 35.685 2.58374C55.0208 2.58374 70.7117 18.2747 70.7117 37.6105Z" fill="url(#paint0_radial_4533_12163)"/>
<path d="M65.4123 28.7917C65.4123 43.216 53.7281 54.9261 39.2779 54.9261C24.8278 54.9261 13.1436 43.2419 13.1436 28.7917C13.1436 14.3416 24.8536 2.65735 39.2779 2.65735C53.7022 2.65735 65.4123 14.3674 65.4123 28.7917Z" fill="url(#paint1_radial_4533_12163)"/>
<path style="mix-blend-mode:screen" d="M56.2618 15.8935C56.2618 22.3818 48.6619 27.6552 39.2784 27.6552C29.8948 27.6552 22.2949 22.3818 22.2949 15.8935C22.2949 9.40512 29.8948 4.13171 39.2784 4.13171C48.6619 4.13171 56.2618 9.40512 56.2618 15.8935Z" fill="url(#paint2_linear_4533_12163)"/>
<defs>
<radialGradient id="paint0_radial_4533_12163" cx="0" cy="0" r="1" gradientUnits="userSpaceOnUse" gradientTransform="translate(35.7108 37.6105) scale(35.0267 35.0267)">
<stop stop-color="#656A6E"/>
<stop offset="0.35" stop-color="#A6A9AB"/>
<stop offset="0.65" stop-color="#D6D7D8"/>
<stop offset="0.87" stop-color="#F3F4F4"/>
<stop offset="1" stop-color="white"/>
</radialGradient>
<radialGradient id="paint1_radial_4533_12163" cx="0" cy="0" r="1" gradientUnits="userSpaceOnUse" gradientTransform="translate(39.1228 33.1862) scale(31.3561)">
<stop offset="0.28"/>
<stop offset="0.68" stop-color="#323232"/>
<stop offset="1" stop-color="#9E9E9E"/>
</radialGradient>
<linearGradient id="paint2_linear_4533_12163" x1="19.1154" y1="45.8278" x2="56.4169" y2="-9.49124" gradientUnits="userSpaceOnUse">
<stop offset="0.08"/>
<stop offset="0.21"/>
<stop offset="0.36" stop-color="#070707"/>
<stop offset="0.51" stop-color="#1C1C1C"/>
<stop offset="0.67" stop-color="#272727"/>
<stop offset="0.83" stop-color="#4D4D4D"/>
<stop offset="0.99" stop-color="#7C7C7C"/>
<stop offset="1" stop-color="#808080"/>
</linearGradient>
</defs>
</svg>
