<svg width="195" height="195" viewBox="0 0 195 195" fill="none" xmlns="http://www.w3.org/2000/svg">
<path style="mix-blend-mode:color-burn" d="M194.815 97.93C194.815 151.446 151.387 194.874 97.8709 194.874C44.3549 194.874 0.926758 151.446 0.926758 97.93C0.926758 44.414 44.3549 0.985962 97.8709 0.985962C151.387 0.985962 194.815 44.414 194.815 97.93Z" fill="url(#paint0_radial_4631_9831)"/>
<path d="M180.147 73.5292C180.147 113.452 147.809 145.862 107.815 145.862C67.821 145.862 35.4824 113.523 35.4824 73.5292C35.4824 33.5353 67.8925 1.19678 107.815 1.19678C147.737 1.19678 180.147 33.6069 180.147 73.5292Z" fill="url(#paint1_radial_4631_9831)"/>
<path style="mix-blend-mode:screen" d="M154.821 37.8299C154.821 55.7878 133.787 70.3831 107.816 70.3831C81.845 70.3831 60.8105 55.7878 60.8105 37.8299C60.8105 19.872 81.845 5.27673 107.816 5.27673C133.787 5.27673 154.821 19.872 154.821 37.8299Z" fill="url(#paint2_linear_4631_9831)"/>
<defs>
<radialGradient id="paint0_radial_4631_9831" cx="0" cy="0" r="1" gradientUnits="userSpaceOnUse" gradientTransform="translate(97.9423 97.93) scale(96.944 96.9441)">
<stop stop-color="#656A6E"/>
<stop offset="0.35" stop-color="#A6A9AB"/>
<stop offset="0.65" stop-color="#D6D7D8"/>
<stop offset="0.87" stop-color="#F3F4F4"/>
<stop offset="1" stop-color="white"/>
</radialGradient>
<radialGradient id="paint1_radial_4631_9831" cx="0" cy="0" r="1" gradientUnits="userSpaceOnUse" gradientTransform="translate(107.386 85.692) scale(86.7846)">
<stop offset="0.28"/>
<stop offset="0.68" stop-color="#323232"/>
<stop offset="1" stop-color="#9E9E9E"/>
</radialGradient>
<linearGradient id="paint2_linear_4631_9831" x1="52.0105" y1="120.68" x2="155.251" y2="-32.4277" gradientUnits="userSpaceOnUse">
<stop offset="0.08"/>
<stop offset="0.21"/>
<stop offset="0.36" stop-color="#070707"/>
<stop offset="0.51" stop-color="#1C1C1C"/>
<stop offset="0.67" stop-color="#272727"/>
<stop offset="0.83" stop-color="#4D4D4D"/>
<stop offset="0.99" stop-color="#7C7C7C"/>
<stop offset="1" stop-color="#808080"/>
</linearGradient>
</defs>
</svg>
