<svg width="602" height="624" viewBox="0 0 602 624" fill="none" xmlns="http://www.w3.org/2000/svg">
<!-- <path style="mix-blend-mode:color-burn" d="M601.4 322.735C601.4 488.655 466.756 623.299 300.836 623.299C134.916 623.299 0.272461 488.655 0.272461 322.735C0.272461 156.815 134.916 22.1714 300.836 22.1714C466.756 22.1714 601.4 156.815 601.4 322.735Z" fill="url(#paint0_radial_4533_12101)"/> -->
<path d="M555.929 247.098C555.929 370.873 455.667 471.356 331.67 471.356C207.674 471.356 107.412 371.095 107.412 247.098C107.412 123.102 207.896 22.8401 331.67 22.8401C455.445 22.8401 555.929 123.324 555.929 247.098Z" fill="url(#paint1_radial_4533_12101)"/>
<path style="mix-blend-mode:screen" d="M477.406 136.408C477.406 192.084 412.191 237.335 331.671 237.335C251.151 237.335 185.937 192.084 185.937 136.408C185.937 80.7312 251.151 35.4802 331.671 35.4802C412.191 35.4802 477.406 80.7312 477.406 136.408Z" fill="url(#paint2_linear_4533_12101)"/>
<defs>
<radialGradient id="paint0_radial_4533_12101" cx="0" cy="0" r="1" gradientUnits="userSpaceOnUse" gradientTransform="translate(301.058 322.735) scale(300.564 300.564)">
<stop stop-color="#656A6E"/>
<stop offset="0.35" stop-color="#A6A9AB"/>
<stop offset="0.65" stop-color="#D6D7D8"/>
<stop offset="0.87" stop-color="#F3F4F4"/>
<stop offset="1" stop-color="white"/>
</radialGradient>
<radialGradient id="paint1_radial_4533_12101" cx="0" cy="0" r="1" gradientUnits="userSpaceOnUse" gradientTransform="translate(330.339 284.807) scale(269.065)">
<stop offset="0.28"/>
<stop offset="0.68" stop-color="#323232"/>
<stop offset="1" stop-color="#9E9E9E"/>
</radialGradient>
<linearGradient id="paint2_linear_4533_12101" x1="158.653" y1="393.273" x2="478.736" y2="-81.418" gradientUnits="userSpaceOnUse">
<stop offset="0.08"/>
<stop offset="0.21"/>
<stop offset="0.36" stop-color="#070707"/>
<stop offset="0.51" stop-color="#1C1C1C"/>
<stop offset="0.67" stop-color="#272727"/>
<stop offset="0.83" stop-color="#4D4D4D"/>
<stop offset="0.99" stop-color="#7C7C7C"/>
<stop offset="1" stop-color="#808080"/>
</linearGradient>
</defs>
</svg>
