<svg width="121" height="125" viewBox="0 0 121 125" fill="none" xmlns="http://www.w3.org/2000/svg">
<path style="mix-blend-mode:color-burn" d="M120.435 64.52C120.435 97.6904 93.5173 124.608 60.3469 124.608C27.1765 124.608 0.258789 97.6904 0.258789 64.52C0.258789 31.3496 27.1765 4.43188 60.3469 4.43188C93.5173 4.43188 120.435 31.3496 120.435 64.52Z" fill="url(#paint0_radial_4533_12135)"/>
<path d="M111.345 49.3971C111.345 74.1419 91.3011 94.2304 66.512 94.2304C41.7229 94.2304 21.6787 74.1862 21.6787 49.3971C21.6787 24.608 41.7672 4.56384 66.512 4.56384C91.2567 4.56384 111.345 24.6523 111.345 49.3971Z" fill="url(#paint1_radial_4533_12135)"/>
<path style="mix-blend-mode:screen" d="M95.6479 27.2687C95.6479 38.3995 82.6103 47.4459 66.5129 47.4459C50.4155 47.4459 37.3779 38.3995 37.3779 27.2687C37.3779 16.138 50.4155 7.09155 66.5129 7.09155C82.6103 7.09155 95.6479 16.138 95.6479 27.2687Z" fill="url(#paint2_linear_4533_12135)"/>
<defs>
<radialGradient id="paint0_radial_4533_12135" cx="0" cy="0" r="1" gradientUnits="userSpaceOnUse" gradientTransform="translate(60.3912 64.52) scale(60.0881 60.0881)">
<stop stop-color="#656A6E"/>
<stop offset="0.35" stop-color="#A6A9AB"/>
<stop offset="0.65" stop-color="#D6D7D8"/>
<stop offset="0.87" stop-color="#F3F4F4"/>
<stop offset="1" stop-color="white"/>
</radialGradient>
<radialGradient id="paint1_radial_4533_12135" cx="0" cy="0" r="1" gradientUnits="userSpaceOnUse" gradientTransform="translate(66.2459 56.9358) scale(53.791)">
<stop offset="0.28"/>
<stop offset="0.68" stop-color="#323232"/>
<stop offset="1" stop-color="#9E9E9E"/>
</radialGradient>
<linearGradient id="paint2_linear_4533_12135" x1="31.9234" y1="78.6208" x2="95.9139" y2="-16.2785" gradientUnits="userSpaceOnUse">
<stop offset="0.08"/>
<stop offset="0.21"/>
<stop offset="0.36" stop-color="#070707"/>
<stop offset="0.51" stop-color="#1C1C1C"/>
<stop offset="0.67" stop-color="#272727"/>
<stop offset="0.83" stop-color="#4D4D4D"/>
<stop offset="0.99" stop-color="#7C7C7C"/>
<stop offset="1" stop-color="#808080"/>
</linearGradient>
</defs>
</svg>
