<svg width="162" height="155" viewBox="0 0 162 155" fill="none" xmlns="http://www.w3.org/2000/svg">
<path d="M122.207 75.5156C147.997 78.818 161.663 94.2294 161.663 114.484C161.663 137.601 143.368 154.113 111.185 154.113H0.97168V0H106.336C138.298 0 155.05 16.0718 155.05 38.5284C155.05 57.022 143.809 71.1124 122.207 75.5156ZM101.487 21.3557H24.4646V74.8551H101.487C123.089 74.8551 133.889 63.847 133.889 48.2155C133.889 32.3638 123.089 21.3557 101.487 21.3557ZM24.4646 132.758H105.013C127.938 132.758 139.62 121.309 139.62 104.797C139.62 88.5052 127.938 77.0567 105.013 77.0567H24.4646V132.758Z" fill="#27292F"/>
</svg>
