<svg width="281" height="54" viewBox="0 0 281 54" fill="none" xmlns="http://www.w3.org/2000/svg">
<path d="M120.471 21.2305H118.551V26.685H113V28.572H118.551V34.0266H120.471V28.572H126.021V26.685H120.471V21.2305Z" fill="#27292F"/>
<path d="M134.701 13.0673L126.701 19.752L127.893 21.2305L134.701 15.4736V41H136.621V13H134.79L134.701 13.0673Z" fill="#27292F"/>
<path d="M163.876 16.9596C161.126 14.3378 157.774 13.0269 153.821 13.0269H143.705V40.9716H153.821C157.774 40.9716 161.126 39.6487 163.876 37C166.625 34.3513 168 31.0052 168 26.9588C168 22.9125 166.625 19.5799 163.876 16.9581V16.9596ZM162.312 35.6622C159.874 37.9248 156.91 39.0546 153.416 39.0546H145.738V14.9439H153.416C156.91 14.9439 159.874 16.0692 162.312 18.3169C164.75 20.566 165.969 23.4467 165.969 26.9588C165.969 30.471 164.75 33.3996 162.312 35.6622Z" fill="#27292F"/>
</svg>
