<svg width="281" height="54" viewBox="0 0 281 54" fill="none" xmlns="http://www.w3.org/2000/svg">
<path d="M16.4815 20.1791L11.373 29.3246L6.35024 20.1791H0V34.8209H4.18378V24.388L9.95232 34.8209H12.7639L18.5809 24.388V34.8209H22.7423V20.1791H16.4815Z" fill="#27292F"/>
<path d="M34.6038 23.6791L37.3371 28.8619H31.9265L34.6038 23.6791ZM31.9265 20.1791L24.2376 34.8209H28.9285L30.3007 32.3806H38.8808L40.2418 34.8209H44.9626L37.4116 20.1791H31.9265Z" fill="#27292F"/>
<path d="M57.7899 20.1791C60.0234 20.1791 61.5411 20.5224 62.3503 21.2127C63.1594 21.8992 63.5621 23.1567 63.5621 24.9776C63.5621 26.2425 63.3831 27.1828 63.0252 27.7985C62.6635 28.4141 62.0631 28.8283 61.2167 29.0373C61.9587 29.2201 62.518 29.5447 62.8909 30.0112C63.2638 30.4776 63.4503 31.0783 63.4503 31.8209V34.8209H59.1472V32.5895C59.1472 32.0149 59.0167 31.6156 58.7556 31.3992C58.4946 31.1828 57.98 31.0746 57.2081 31.0746H50.7945V34.8209H46.4802V20.1791H57.7899ZM57.6295 23.8246H50.7908V27.403H57.6295C58.2038 27.403 58.6065 27.2649 58.8339 26.985C59.0651 26.7052 59.1807 26.2015 59.1807 25.4738C59.1807 24.8992 59.0577 24.4776 58.8116 24.2164C58.5655 23.9589 58.1702 23.8246 57.6295 23.8246Z" fill="#27292F"/>
<path d="M78.1084 20.1791L72.4703 25.6156H70.6618V20.1791H66.3699V34.8209H70.6618V29.2836H72.4703L78.8467 34.8209H84.824L76.2066 27.4067L83.821 20.1791H78.1084Z" fill="#27292F"/>
<path d="M85.9874 29.9515L90.2346 29.9403V30.2052C90.2346 30.7575 90.3651 31.1269 90.6224 31.3209C90.8797 31.5149 91.4241 31.6119 92.2482 31.6119H97.6513C98.1808 31.6119 98.5612 31.5187 98.7849 31.3321C99.0124 31.1455 99.1242 30.8358 99.1242 30.403C99.1242 29.9627 98.9937 29.6493 98.7327 29.459C98.4717 29.2687 97.9086 29.1418 97.0435 29.0746L90.2906 28.9179C88.6014 28.8657 87.4566 28.5299 86.86 27.9142C86.2634 27.2985 85.9651 26.1791 85.9651 24.5522C85.9651 23.7127 86.0434 23.0224 86.2 22.4776C86.3566 21.9328 86.6102 21.4813 86.957 21.1194C87.3671 20.7127 87.9041 20.4254 88.5641 20.2537C89.2278 20.0821 90.3055 20 91.8008 20H98.3673C99.993 20 101.164 20.306 101.884 20.9254C102.6 21.541 102.957 22.541 102.957 23.9254C102.957 24.0187 102.954 24.1157 102.954 24.2201C102.95 24.3246 102.939 24.4963 102.92 24.7313H98.7774V24.6716C98.7774 24.1866 98.6581 23.8209 98.4232 23.5784C98.1883 23.3358 97.834 23.2164 97.3605 23.2164H92.4048C91.577 23.2164 91.0326 23.3022 90.7679 23.4701C90.5031 23.6418 90.3689 23.9403 90.3689 24.3657C90.3689 24.7836 90.4882 25.0896 90.7268 25.2761C90.9655 25.4627 91.4092 25.5821 92.0506 25.6343L99.128 25.7537C100.743 25.7985 101.88 26.1754 102.536 26.8843C103.192 27.5933 103.524 28.8022 103.524 30.5112C103.524 31.5261 103.401 32.3134 103.159 32.8731C102.916 33.4291 102.506 33.9067 101.932 34.2985C101.552 34.5485 101.041 34.7276 100.388 34.8358C99.7395 34.944 98.7998 35 97.5693 35H91.838C89.4851 35 87.9115 34.7276 87.1173 34.1791C86.3231 33.6306 85.9241 32.6119 85.9241 31.1157C85.9241 31.0299 85.9278 30.8881 85.939 30.6903C85.9539 30.4851 85.9688 30.2425 85.9874 29.9515Z" fill="#27292F"/>
<path d="M111.78 20.1828V34.7947H122.023V33.2686H113.387V28H121.781V26.5149H113.387V21.7313H122.023V20.1828H111.78Z" fill="#27292F"/>
<path d="M138.072 20.1828V33.2276L130.16 20.1828H127.669V34.7947H129.276V21.7313L137.188 34.7947H139.679V20.1828H138.072Z" fill="#27292F"/>
<path d="M150.989 20.0037H152.835C156.37 20.0037 158.096 21.1492 158.096 23.7836V24.4067H156.429V24.2239C156.429 22.0112 155.344 21.5298 152.734 21.5298H151.448C150.001 21.5298 148.975 21.5709 148.174 22.2537C147.45 22.8768 147.409 23.8433 147.409 25.4104V29.5709C147.409 31.138 147.45 32.1045 148.174 32.7276C148.998 33.4291 150.023 33.4515 151.448 33.4515H152.734C154.039 33.4515 154.964 33.4328 155.706 32.8097C156.37 32.2462 156.429 31.3433 156.429 29.9142V29.0112H152.372V27.5261H158.096V29.9776C158.096 33.735 156.731 34.9813 152.835 34.9813H150.989C147.092 34.9813 145.727 33.735 145.727 29.9776V25.0074C145.727 21.25 147.092 20.0037 150.989 20.0037Z" fill="#27292F"/>
<path d="M165.71 20.1828H164.085V34.7947H165.71V20.1828Z" fill="#27292F"/>
<path d="M182.707 20.1828V33.2276L174.794 20.1828H172.303V34.7947H173.91V21.7313L181.823 34.7947H184.314V20.1828H182.707Z" fill="#27292F"/>
<path d="M190.925 20.1828V34.7947H201.164V33.2686H192.528V28H200.926V26.5149H192.528V21.7313H201.164V20.1828H190.925Z" fill="#27292F"/>
<path d="M206.814 20.1828V34.7947H217.053V33.2686H208.417V28H216.814V26.5149H208.417V21.7313H217.053V20.1828H206.814Z" fill="#27292F"/>
<path d="M222.699 20.1828H229.287C232.42 20.1828 233.605 20.9067 233.605 23.5186V25.7313C233.605 27.2574 232.983 28.1231 231.719 28.3433C233.165 28.6865 233.605 29.5074 233.605 31.2761V34.7947H231.92V31.7798C231.92 29.6492 231.376 29.1082 229.489 29.1082H224.306V34.7947H222.699V20.1828ZM224.306 27.5783H228.967C230.977 27.5783 231.92 27.3582 231.92 25.5074V23.7985C231.92 21.9291 231.036 21.7276 228.967 21.7276H224.306V27.5783Z" fill="#27292F"/>
<path d="M241.421 20.1828H239.795V34.7947H241.421V20.1828Z" fill="#27292F"/>
<path d="M258.414 20.1828V33.2276L250.501 20.1828H248.01V34.7947H249.617V21.7313L257.53 34.7947H260.021V20.1828H258.414Z" fill="#27292F"/>
<path d="M271.33 20.0037H273.176C276.711 20.0037 278.438 21.1492 278.438 23.7836V24.4067H276.771V24.2239C276.771 22.0112 275.686 21.5298 273.075 21.5298H271.789C270.342 21.5298 269.317 21.5709 268.515 22.2537C267.792 22.8768 267.751 23.8433 267.751 25.4104V29.5709C267.751 31.138 267.792 32.1045 268.515 32.7276C269.339 33.4291 270.365 33.4515 271.789 33.4515H273.075C274.381 33.4515 275.305 33.4328 276.047 32.8097C276.711 32.2462 276.771 31.3433 276.771 29.9142V29.0112H272.714V27.5261H278.438V29.9776C278.438 33.735 277.073 34.9813 273.176 34.9813H271.33C267.434 34.9813 266.069 33.735 266.069 29.9776V25.0074C266.069 21.25 267.434 20.0037 271.33 20.0037Z" fill="#27292F"/>
</svg>
