<svg width="281" height="54" viewBox="0 0 281 54" fill="none" xmlns="http://www.w3.org/2000/svg">
<path d="M90.8446 22.7517V37.0213H87.1867V19.5288H102.169V37.0213H98.5107V22.7517H90.8446Z" fill="#27292F"/>
<path d="M117.326 22.5509V19.5288H106.103V37.0213H117.326V33.9976H109.582V29.2246H116.821V26.2502H109.582V22.5509H117.326Z" fill="#27292F"/>
<path d="M142.369 30.1725V19.5288H138.89V37.896L151.449 26.3776V37.0213H154.929V18.6542L142.369 30.1725Z" fill="#27292F"/>
<path d="M162.459 31.2861C162.988 32.1448 163.683 32.8027 164.539 33.26C165.395 33.7188 166.329 33.9466 167.339 33.9466C168.178 33.9466 168.927 33.8383 169.582 33.6216C170.239 33.4049 170.829 33.1134 171.36 32.747C171.892 32.3806 172.349 31.9807 172.735 31.5473V35.5716C172.013 36.1387 171.226 36.58 170.376 36.8955C169.529 37.2125 168.455 37.3702 167.162 37.3702C165.869 37.3702 164.567 37.1536 163.416 36.7202C162.264 36.2869 161.263 35.6624 160.415 34.8467C159.565 34.0294 158.909 33.0688 158.447 31.96C157.986 30.8527 157.754 29.6244 157.754 28.2735C157.754 26.9225 157.986 25.6958 158.447 24.587C158.909 23.4797 159.566 22.5175 160.415 21.7018C161.263 20.8845 162.264 20.2616 163.416 19.8283C164.567 19.395 165.814 19.1783 167.162 19.1783C168.509 19.1783 169.529 19.3376 170.376 19.653C171.226 19.9701 172.011 20.4114 172.735 20.9769V25.0012C172.349 24.5678 171.89 24.168 171.36 23.8016C170.831 23.4351 170.239 23.1436 169.582 22.9269C168.927 22.7103 168.178 22.6019 167.339 22.6019C166.329 22.6019 165.395 22.8313 164.539 23.2886C163.681 23.7474 162.988 24.4006 162.459 25.2513C161.93 26.1004 161.665 27.1089 161.665 28.2751C161.665 29.4412 161.93 30.429 162.459 31.2877V31.2861Z" fill="#27292F"/>
<path d="M190.971 37.0213L183.279 27.7254L190.593 19.5288H186.305L180.024 26.6278V19.5288H176.317V37.0213H180.024V29.1035L186.581 37.0213H190.971Z" fill="#27292F"/>
<path d="M204.137 22.5509V19.5288H192.914V37.0213H204.137V33.9976H196.392V29.2246H203.632V26.2502H196.392V22.5509H204.137Z" fill="#27292F"/>
<path d="M219.219 22.1272C218.698 21.294 217.944 20.6519 216.961 20.2027C215.979 19.7534 214.787 19.5288 213.392 19.5288H207.692V37.0213H211.298V30.6743H213.392C214.787 30.6743 215.977 30.4497 216.961 29.9988C217.944 29.5496 218.698 28.9043 219.219 28.0632C219.74 27.2204 220 26.2343 220 25.1015C220 23.9688 219.74 22.9604 219.219 22.1288V22.1272ZM215.662 27.0006C215.107 27.4339 214.35 27.6506 213.392 27.6506H211.298V22.5525H213.392C214.35 22.5525 215.107 22.7644 215.662 23.1898C216.217 23.6152 216.495 24.2524 216.495 25.1015C216.495 25.9507 216.215 26.5672 215.662 27.0006Z" fill="#27292F"/>
<path d="M122.972 36.9401L128.071 26.5274L133.167 36.9401H136.899L128.071 18.9091L128.066 18.9218V18.9202L119.24 36.9401H122.972Z" fill="#27292F"/>
<path d="M70.2531 16C65.1916 16 61.082 20.0242 61 25.0187V37.0213L66.6338 39V29.4779C66.6338 28.8565 66.2303 28.146 65.6338 27.9548L62.6384 26.9018V25.0187H77.871V26.6708L71.4445 28.0472C70.7676 28.1811 70.2788 28.9282 70.2788 29.6133V39L79.5077 37.0213V25.0187C79.4241 20.0242 75.3145 16 70.2547 16H70.2531Z" fill="#27292F"/>
</svg>
