<svg width="281" height="54" viewBox="0 0 281 54" fill="none" xmlns="http://www.w3.org/2000/svg">
<path d="M71.3057 38H67.3919V35.8462H66.5821C65.1238 35.8462 63.8079 35.6629 62.6271 35.2927C61.4499 34.9263 60.4415 34.3916 59.6055 33.6923C58.7695 32.9931 58.1247 32.1218 57.6748 31.0823C57.2249 30.0427 57 28.8462 57 27.5C57 26.1538 57.2249 24.961 57.6748 23.9177C58.1247 22.8782 58.7695 22.0069 59.6055 21.3077C60.4415 20.6084 61.4499 20.0737 62.6271 19.7073C63.8042 19.3408 65.1238 19.1538 66.5821 19.1538H67.3919V17H71.3057V19.1538H72.1154C73.5738 19.1538 74.8896 19.3371 76.0705 19.7073C77.2477 20.0737 78.2561 20.6084 79.0921 21.3077C79.9281 22.0069 80.5729 22.8782 81.0228 23.9177C81.4726 24.9573 81.6976 26.1538 81.6976 27.5C81.6976 28.8462 81.4726 30.039 81.0228 31.0823C80.5729 32.1255 79.9281 32.9931 79.0921 33.6923C78.2561 34.3916 77.2477 34.9263 76.0705 35.2927C74.8934 35.6592 73.5738 35.8462 72.1154 35.8462H71.3057V38ZM67.3919 21.1731H66.5821C65.8436 21.1731 65.1463 21.289 64.4902 21.5246C63.8342 21.7564 63.2606 22.1266 62.777 22.6277C62.2897 23.1287 61.9035 23.7794 61.6149 24.5796C61.3262 25.3798 61.1837 26.352 61.1837 27.5C61.1837 28.648 61.3262 29.6239 61.6149 30.4204C61.9035 31.2206 62.2897 31.8713 62.777 32.3723C63.2644 32.8734 63.8342 33.2436 64.4902 33.4754C65.1463 33.7073 65.8436 33.8269 66.5821 33.8269H67.3919V21.1731ZM71.3057 33.8269H72.1154C72.854 33.8269 73.5513 33.711 74.2073 33.4754C74.8634 33.2436 75.4369 32.8734 75.9205 32.3723C76.4079 31.8713 76.794 31.2206 77.0827 30.4204C77.3714 29.6239 77.5138 28.648 77.5138 27.5C77.5138 26.352 77.3714 25.3761 77.0827 24.5796C76.794 23.7794 76.4079 23.1287 75.9205 22.6277C75.4332 22.1266 74.8634 21.7564 74.2073 21.5246C73.5513 21.2927 72.854 21.1731 72.1154 21.1731H71.3057V33.8269Z" fill="#27292F"/>
<path d="M100.187 36.9231V21.5769H99.9171L89.7951 36.9231H84.6667V18.0769H88.5805V33.4231H88.8504L98.9724 18.0769H104.101V36.9231H100.187Z" fill="#27292F"/>
<path d="M126.774 18.0769V36.9231H122.86V28.7115H111.793V36.9231H107.88V18.0769H111.793V26.6923H122.86V18.0769H126.774Z" fill="#27292F"/>
<path d="M143.374 34.2308H143.644L150.662 18.0769H156.465V36.9231H152.551V21.8462H152.281L145.803 36.9231H141.215L134.737 21.8462H134.467V36.9231H130.553V18.0769H136.356L143.374 34.2308Z" fill="#27292F"/>
<path d="M172.525 18.0769L180.218 36.9231H176.33L174.55 32.3462H164.293L162.512 36.9231H158.624L166.317 18.0769H172.525ZM165.237 30.3269H173.605L169.556 20.3654H169.286L165.237 30.3269Z" fill="#27292F"/>
<path d="M192.109 18.0769C193.459 18.0769 194.674 18.2265 195.746 18.5219C196.818 18.8173 197.725 19.2473 198.464 19.8157C199.202 20.3803 199.772 21.0721 200.166 21.8873C200.563 22.7062 200.762 23.6335 200.762 24.6731C200.762 25.7126 200.563 26.6437 200.166 27.4589C199.768 28.274 199.202 28.9658 198.464 29.5304C197.725 30.0951 196.818 30.5251 195.746 30.8243C194.674 31.1197 193.459 31.2692 192.109 31.2692H186.295V36.9231H182.381V18.0769H192.113H192.109ZM186.291 20.0962V29.25H192.094C193.515 29.25 194.617 28.8761 195.401 28.1319C196.184 27.3878 196.574 26.2324 196.574 24.6731C196.574 23.1138 196.184 21.9583 195.401 21.2142C194.617 20.4701 193.515 20.0962 192.094 20.0962H186.291Z" fill="#27292F"/>
<path d="M215.847 27.3654L223 36.9231H218.546L212.338 28.5769H207.615V36.9231H203.701V18.0769H207.615V26.5577H212.068L218.276 18.0769H222.595L215.847 27.3654Z" fill="#27292F"/>
</svg>
