<svg width="281" height="54" viewBox="0 0 281 54" fill="none" xmlns="http://www.w3.org/2000/svg">
<path d="M66.4943 10.4756L66.1367 10.8334H76.0252L76.3828 10.4756H66.4943Z" fill="#27292F"/>
<path d="M67.969 9L67.6074 9.36181H76.7847L77.1463 9H67.969Z" fill="#27292F"/>
<path d="M65.0197 11.9507L64.6621 12.3085H73.8394L74.197 11.9507H65.0197Z" fill="#27292F"/>
<path d="M63.5337 13.4385L63.1641 13.8043H72.9119L73.2815 13.4385H63.5337Z" fill="#27292F"/>
<path d="M62.057 14.9136L61.6914 15.2794H71.5839L71.9495 14.9136H62.057Z" fill="#27292F"/>
<path d="M60.5708 16.4009L60.2012 16.7667H70.1137L70.4834 16.4009H60.5708Z" fill="#27292F"/>
<path d="M59.0983 17.8765L58.7246 18.2463H68.9184L69.2921 17.8765H59.0983Z" fill="#27292F"/>
<path d="M57.6098 19.3638L57.2441 19.7256H67.7032L68.0688 19.3638H57.6098Z" fill="#27292F"/>
<path d="M56.1351 20.8394L55.7734 21.2012H65.5976L65.9552 20.8394H56.1351Z" fill="#27292F"/>
<path d="M54.6683 22.3027L54.3066 22.6686H64.2192L64.5848 22.3027H54.6683Z" fill="#27292F"/>
<path d="M53.1935 23.7778L52.8359 24.1396H62.9092L63.2668 23.7778H53.1935Z" fill="#27292F"/>
<path d="M51.7073 25.2651L51.3457 25.631H61.5556L61.9212 25.2651H51.7073Z" fill="#27292F"/>
<path d="M59.3621 26.793H50.1848L50 26.9779L50.1848 27.1628H59.3621L59.1773 26.9779L59.3621 26.793Z" fill="#27292F"/>
<path d="M51.3711 28.3491L51.7448 28.723H61.9426L61.5649 28.3491H51.3711Z" fill="#27292F"/>
<path d="M52.8516 29.832L53.2172 30.1979H62.3945L62.0288 29.832H52.8516Z" fill="#27292F"/>
<path d="M54.3359 31.3154L54.7056 31.6853H64.5941L64.2244 31.3154H54.3359Z" fill="#27292F"/>
<path d="M55.8105 32.791L56.1802 33.1609H65.3575L64.9878 32.791H55.8105Z" fill="#27292F"/>
<path d="M57.2852 34.2661L57.6548 34.636H67.7361L67.3665 34.2661H57.2852Z" fill="#27292F"/>
<path d="M58.7637 35.7417L59.1293 36.1115H69.2347L68.8691 35.7417H58.7637Z" fill="#27292F"/>
<path d="M60.2461 37.229L60.6158 37.5989H70.7573L70.3877 37.229H60.2461Z" fill="#27292F"/>
<path d="M61.7246 38.7085L62.0903 39.0743H72.3363L71.9667 38.7085H61.7246Z" fill="#27292F"/>
<path d="M63.207 40.1924L63.5767 40.5622H73.6902L73.3165 40.1924H63.207Z" fill="#27292F"/>
<path d="M64.6816 41.667L65.0513 42.0368H75.0081L74.6344 41.667H64.6816Z" fill="#27292F"/>
<path d="M66.1758 43.1631L66.5374 43.5249H76.6991L76.3375 43.1631H66.1758Z" fill="#27292F"/>
<path d="M67.6426 44.6304L68.0122 45.0002H78.0695L77.6998 44.6304H67.6426Z" fill="#27292F"/>
<path d="M76.0345 45H82.5678L64.5508 26.9779L82.5236 9H75.9903L58.0215 26.9779L76.0345 45Z" fill="#27292F"/>
<path d="M89.5939 27.0061L82.486 19.8945L79.7175 22.6644H79.7215L84.0611 27.0061L79.6211 31.4483L82.3895 34.2141L89.5939 27.0061Z" fill="#27292F"/>
<path d="M78.7663 23.7417L78.3926 24.1156H82.4187L82.7924 23.7417H78.7663Z" fill="#27292F"/>
<path d="M77.2389 25.269L76.8652 25.6429H84.4152L84.7848 25.269H77.2389Z" fill="#27292F"/>
<path d="M75.6784 26.8491L75.3047 27.223H85.2172L85.5869 26.8491H75.6784Z" fill="#27292F"/>
<path d="M76.5586 28.3926L76.9403 28.7705H83.4576L83.0759 28.3926H76.5586Z" fill="#27292F"/>
<path d="M78.0898 29.9248L78.4716 30.3067H84.9889L84.6112 29.9248H78.0898Z" fill="#27292F"/>
<path d="M106.988 34.0975V19.7739H114.968V34.0975H113.823V20.8232H108.133V34.0975H106.988Z" fill="#27292F"/>
<path d="M117.906 29.5508V24.3206C117.906 21.1488 119.433 19.585 121.973 19.585C124.512 19.585 126.039 21.1528 126.039 24.3206V29.5548C126.039 32.7267 124.512 34.2905 121.973 34.2905C119.437 34.2905 117.906 32.7226 117.906 29.5508ZM124.894 29.5508V24.3206C124.894 21.7438 123.805 20.6342 121.973 20.6342C120.16 20.6342 119.051 21.7438 119.051 24.3206V29.5548C119.051 32.1317 120.14 33.2412 121.973 33.2412C123.789 33.2372 124.894 32.1317 124.894 29.5508Z" fill="#27292F"/>
<path d="M127.527 33.0483H128.52C129.303 31.8624 129.818 30.1659 129.798 19.7739H136.881V33.0483H138.219V36.6784H137.151V34.0975H128.6V36.6744H127.531V33.0483H127.527ZM129.701 33.0483H135.732V20.8232H130.846C130.826 26.8212 130.714 29.6111 130.292 31.4041C130.139 32.0352 129.986 32.6101 129.701 33.0483Z" fill="#27292F"/>
<path d="M142.757 27.203V26.1699H143.958C145.409 26.1699 146.289 25.2131 146.289 23.4402V23.2875C146.289 21.5307 145.256 20.6342 143.846 20.6342C142.375 20.6342 141.25 21.4382 141.25 23.2111V23.6694H140.105V23.1548C140.105 20.787 141.805 19.585 143.846 19.585C145.775 19.585 147.434 20.6945 147.434 23.1186V23.4041C147.434 24.9518 146.747 26.0211 145.678 26.5357C146.996 27.0503 147.816 28.2161 147.816 30.0292V30.391C147.816 33.0282 146.06 34.2865 143.882 34.2865C141.648 34.2865 139.836 33.0081 139.836 30.2945V29.6432H140.981V30.1779C140.981 32.204 142.182 33.2332 143.882 33.2332C145.602 33.2332 146.671 32.2603 146.671 30.2905V30.0975C146.671 28.1679 145.755 27.195 143.999 27.195H142.757V27.203Z" fill="#27292F"/>
<path d="M156.482 34.0975H150.375V19.7739H156.482V20.8232H151.52V26.1699H156.101V27.2031H151.52V33.0483H156.482V34.0975Z" fill="#27292F"/>
<path d="M163.66 34.0975L160.108 20.4413V34.0975H159.039V19.7739H161.024L164.423 32.7789L167.859 19.7739H169.884V34.0975H168.739V20.4815L165.094 34.1016H163.66V34.0975Z" fill="#27292F"/>
<path d="M173.014 34.0975V19.7739H180.994V34.0975H179.848V20.8232H174.159V34.0975H173.014Z" fill="#27292F"/>
<path d="M184.119 34.0975V19.7739H188.185C190.399 19.7739 191.982 21.0362 191.982 23.4041V24.59C191.982 27.0543 190.399 28.4091 188.185 28.4091H185.264V34.0975H184.119ZM185.264 20.8232V27.3558H187.993C189.728 27.3558 190.837 26.4955 190.837 24.397V23.593C190.837 21.6071 189.728 20.8232 187.993 20.8232H185.264Z" fill="#27292F"/>
<path d="M194.047 29.5508V24.3206C194.047 21.1488 195.574 19.585 198.113 19.585C200.653 19.585 202.179 21.1528 202.179 24.3206V29.5548C202.179 32.7267 200.653 34.2905 198.113 34.2905C195.574 34.2905 194.047 32.7226 194.047 29.5508ZM201.03 29.5508V24.3206C201.03 21.7438 199.941 20.6342 198.109 20.6342C196.297 20.6342 195.188 21.7438 195.188 24.3206V29.5548C195.188 32.1317 196.277 33.2412 198.109 33.2412C199.925 33.2372 201.03 32.1317 201.03 29.5508Z" fill="#27292F"/>
<path d="M211.225 34.0975H205.117V19.7739H211.225V20.8232H206.262V26.1699H210.843V27.2031H206.262V33.0483H211.225V34.0975Z" fill="#27292F"/>
<path d="M214.924 27.6051L220.329 19.7739H221.606L217.255 26.2101L221.912 34.0975H220.538L216.395 27.2031L214.924 29.3418V34.0975H213.779V19.7739H214.924V27.6051Z" fill="#27292F"/>
<path d="M225.91 34.0975V20.8232H222.531V19.7739H230.435V20.8232H227.056V34.0975H225.91Z" fill="#27292F"/>
</svg>
