<svg width="281" height="54" viewBox="0 0 281 54" fill="none" xmlns="http://www.w3.org/2000/svg">
<path d="M103.189 16L92 27.4997L103.189 38.9993L114.377 27.4997L103.189 16Z" fill="#27292F"/>
<path d="M146.742 16.0029V31.6069H145.251V24.0948C145.251 19.624 141.728 16.0029 137.378 16.0029C133.028 16.0029 129.505 19.624 129.505 24.0948V39H136.574V23.396H138.066V30.9081C138.066 35.3789 141.589 39 145.939 39C150.288 39 153.812 35.3789 153.812 30.9081V16.0029H146.742Z" fill="#27292F"/>
<path d="M128.014 16.0029H120.944V39H128.014V16.0029Z" fill="#27292F"/>
<path d="M188 16.0029H180.931V39H188V16.0029Z" fill="#27292F"/>
<path d="M171.559 16.0029H155.303V39H162.496V32.1946H171.559C175.909 32.1946 179.432 28.5735 179.432 24.1027C179.432 19.624 175.909 16.0029 171.559 16.0029ZM172.239 24.8015H162.488V23.2689H172.239V24.8015Z" fill="#27292F"/>
</svg>
