<svg width="281" height="54" viewBox="0 0 281 54" fill="none" xmlns="http://www.w3.org/2000/svg">
<path d="M54.4804 20.1792L49.3711 29.3201L44.3475 20.1792H38V34.8136H42.1807V24.386L47.9502 34.8136H50.7621L56.5801 24.386V34.8136H60.7421V20.1792H54.4804Z" fill="#27292F"/>
<path d="M72.6061 23.6774L75.3398 28.8576H69.9284L72.6061 23.6774ZM69.9284 20.1792L62.2383 34.8136H66.9299L68.3024 32.3745H76.8838L78.245 34.8136H82.9665L75.4181 20.1792H69.9284Z" fill="#27292F"/>
<path d="M95.7956 20.1792C98.0295 20.1792 99.5474 20.5223 100.357 21.2123C101.162 21.9022 101.569 23.1553 101.569 24.979C101.569 26.2433 101.39 27.1831 101.028 27.7985C100.67 28.4138 100.066 28.8278 99.2192 29.0366C99.9614 29.2194 100.521 29.5439 100.894 30.01C101.267 30.4762 101.453 31.0767 101.453 31.8188V34.8173H97.1494V32.5871C97.1494 32.0128 97.0189 31.6137 96.7578 31.3974C96.4967 31.1811 95.9821 31.0729 95.2101 31.0729H88.7954V34.8173H84.4805V20.1792H95.7956ZM95.6352 23.8266H88.7954V27.4031H95.6352C96.2096 27.4031 96.6123 27.2652 96.8398 26.9854C97.0711 26.7057 97.1867 26.2023 97.1867 25.475C97.1867 24.9007 97.0636 24.4793 96.8175 24.2182C96.5713 23.9571 96.176 23.8266 95.6352 23.8266Z" fill="#27292F"/>
<path d="M116.117 20.1792L110.478 25.613H108.673V20.1792H104.377V34.8136H108.673V29.2791H110.478L116.856 34.8136H122.834L114.215 27.4031L121.831 20.1792H116.117Z" fill="#27292F"/>
<path d="M123.997 29.9465L128.245 29.9353V30.2001C128.245 30.7483 128.371 31.1212 128.633 31.3152C128.89 31.5091 129.434 31.6061 130.259 31.6061H135.659C136.188 31.6061 136.569 31.5128 136.793 31.3263C137.02 31.1399 137.132 30.8303 137.132 30.3977C137.132 29.9576 137.001 29.6444 136.74 29.4542C136.479 29.264 135.916 29.1372 135.051 29.07L128.297 28.9134C126.607 28.8612 125.462 28.5293 124.866 27.9102C124.269 27.2948 123.971 26.1722 123.971 24.5499C123.971 23.7108 124.049 23.0209 124.206 22.4764C124.362 21.9319 124.616 21.4806 124.963 21.1188C125.373 20.7123 125.91 20.4252 126.57 20.2536C127.234 20.082 128.312 20 129.807 20H136.375C138.001 20 139.172 20.3095 139.888 20.9249C140.604 21.5403 140.962 22.5398 140.962 23.9234C140.962 24.0166 140.958 24.1136 140.958 24.218C140.955 24.3224 140.943 24.494 140.925 24.7289H136.781V24.6693C136.781 24.1844 136.662 23.819 136.427 23.5765C136.192 23.3341 135.834 23.2111 135.364 23.2111H130.408C129.58 23.2111 129.035 23.2968 128.771 23.4684C128.506 23.6399 128.371 23.9383 128.371 24.3635C128.371 24.7812 128.491 25.087 128.729 25.2734C128.968 25.4599 129.412 25.5793 130.053 25.6315L137.132 25.7508C138.747 25.7956 139.884 26.1722 140.541 26.8808C141.201 27.5894 141.529 28.7978 141.529 30.5059C141.529 31.5203 141.406 32.3072 141.167 32.8629C140.925 33.4186 140.515 33.8959 139.94 34.2875C139.56 34.5374 139.049 34.7164 138.396 34.8246C137.747 34.9327 136.807 34.9849 135.577 34.9849H129.845C127.491 34.9849 125.917 34.7127 125.123 34.1645C124.329 33.62 123.93 32.5981 123.93 31.1026C123.93 31.0168 123.933 30.8751 123.945 30.6737C123.963 30.4798 123.978 30.2373 123.997 29.9465Z" fill="#27292F"/>
<path d="M150.145 20.1831H157.204C160.885 20.1831 162.172 21.4698 162.172 25.0724V29.9021C162.172 33.5047 160.885 34.81 157.204 34.81H150.145V20.1831ZM156.947 33.363C159.662 33.363 160.486 32.6991 160.486 29.9207V25.1955C160.486 22.3387 159.74 21.6339 156.947 21.6339H151.756V33.363H156.947Z" fill="#27292F"/>
<path d="M169.925 20.1831H168.295V34.81H169.925V20.1831Z" fill="#27292F"/>
<path d="M181.229 20.0039H183.078C186.621 20.0039 188.348 21.1526 188.348 23.7856V24.4084H186.677V24.2294C186.677 22.0178 185.592 21.533 182.978 21.533H181.691C180.24 21.533 179.215 21.574 178.413 22.2565C177.689 22.8793 177.648 23.8452 177.648 25.4153V29.5774C177.648 31.1475 177.689 32.1134 178.413 32.7363C179.237 33.4411 180.263 33.4598 181.691 33.4598H182.978C184.287 33.4598 185.212 33.4411 185.954 32.8146C186.618 32.2514 186.677 31.3452 186.677 29.9168V29.0105H182.612V27.5225H188.344V29.9765C188.344 33.7395 186.976 34.9851 183.075 34.9851H181.225C177.324 34.9851 175.955 33.7395 175.955 29.9765V25.0126C175.959 21.2495 177.328 20.0039 181.229 20.0039Z" fill="#27292F"/>
<path d="M195.979 20.1831H194.35V34.81H195.979V20.1831Z" fill="#27292F"/>
<path d="M200.588 20.1831V21.7346H205.235V34.81H206.865V21.7346H211.53V20.1831H200.588Z" fill="#27292F"/>
<path d="M221.068 21.7346H221.59L224.507 29.6186H218.174L221.068 21.7346ZM220.005 20.1831L214.594 34.81H216.265L217.633 31.0656H225.036L226.424 34.81H228.094L222.661 20.1831H220.005Z" fill="#27292F"/>
<path d="M233.121 20.1831V34.81H243V33.2809H234.714V20.1831H233.121Z" fill="#27292F"/>
</svg>
