<svg width="355" height="367" viewBox="0 0 355 367" fill="none" xmlns="http://www.w3.org/2000/svg">
<path style="mix-blend-mode:color-burn" d="M354.349 189.809C354.349 287.389 275.163 366.575 177.583 366.575C80.0033 366.575 0.817383 287.389 0.817383 189.809C0.817383 92.2291 80.0033 13.0433 177.583 13.0433C275.163 13.0433 354.349 92.2291 354.349 189.809Z" fill="url(#paint0_radial_4533_12131)"/>
<path d="M327.607 145.317C327.607 218.11 268.642 277.206 195.718 277.206C122.794 277.206 63.8281 218.241 63.8281 145.317C63.8281 72.3925 122.924 13.427 195.718 13.427C268.511 13.427 327.607 72.5229 327.607 145.317Z" fill="url(#paint1_radial_4533_12131)"/>
<path style="mix-blend-mode:screen" d="M281.427 80.2297C281.427 112.974 243.074 139.586 195.719 139.586C148.363 139.586 110.01 112.974 110.01 80.2297C110.01 47.4856 148.363 20.8728 195.719 20.8728C243.074 20.8728 281.427 47.4856 281.427 80.2297Z" fill="url(#paint2_linear_4533_12131)"/>
<defs>
<radialGradient id="paint0_radial_4533_12131" cx="0" cy="0" r="1" gradientUnits="userSpaceOnUse" gradientTransform="translate(177.714 189.809) scale(176.766 176.766)">
<stop stop-color="#656A6E"/>
<stop offset="0.35" stop-color="#A6A9AB"/>
<stop offset="0.65" stop-color="#D6D7D8"/>
<stop offset="0.87" stop-color="#F3F4F4"/>
<stop offset="1" stop-color="white"/>
</radialGradient>
<radialGradient id="paint1_radial_4533_12131" cx="0" cy="0" r="1" gradientUnits="userSpaceOnUse" gradientTransform="translate(194.935 167.494) scale(158.241)">
<stop offset="0.28"/>
<stop offset="0.68" stop-color="#323232"/>
<stop offset="1" stop-color="#9E9E9E"/>
</radialGradient>
<linearGradient id="paint2_linear_4533_12131" x1="93.9639" y1="231.296" x2="282.21" y2="-47.8767" gradientUnits="userSpaceOnUse">
<stop offset="0.08"/>
<stop offset="0.21"/>
<stop offset="0.36" stop-color="#070707"/>
<stop offset="0.51" stop-color="#1C1C1C"/>
<stop offset="0.67" stop-color="#272727"/>
<stop offset="0.83" stop-color="#4D4D4D"/>
<stop offset="0.99" stop-color="#7C7C7C"/>
<stop offset="1" stop-color="#808080"/>
</linearGradient>
</defs>
</svg>
