<svg width="80" height="80" viewBox="0 0 80 80" fill="none" xmlns="http://www.w3.org/2000/svg">
<g clip-path="url(#clip0_7406_121)">
<path d="M35.1 35.7665C34.7667 34.7332 34.4667 33.7332 34.1333 32.6999C33.8 31.6665 33.5 30.6999 33.2333 29.7332C32.9667 28.7999 32.7333 27.9332 32.5 27.1332H32.4333C32.1333 28.5665 31.7667 29.9999 31.3 31.4332C30.8 33.0332 30.3 34.6999 29.7667 36.3666C29.3 38.0666 28.8 39.6332 28.3 41.0332H36.7667C36.5667 40.3299 36.3 39.4999 36 38.6299C35.7 37.7332 35.4 36.7665 35.1 35.7665ZM65.8333 0.0078125H14.1667C6.33333 0.0078125 0 6.34115 0 14.1745V65.8178C0 73.6511 6.33333 79.9844 14.1667 79.9844H65.8333C73.6667 79.9844 80 73.6511 80 65.8178V14.1745C80 6.34115 73.6667 0.0078125 65.8333 0.0078125ZM49 56.0999H42.03C41.8 56.1332 41.5667 55.9666 41.5 55.7332L38.7667 47.7999H26.3667L23.8333 55.6332C23.7667 55.9332 23.5 56.1332 23.2 56.1032H16.9333C16.5667 56.1032 16.4667 55.8999 16.5667 55.5032L27.3 24.5999C27.4 24.2665 27.5 23.8999 27.6333 23.4999C27.7667 22.7999 27.8333 22.0665 27.8333 21.3332C27.8 21.1665 27.9333 20.9999 28.1 20.9665H36.7333C37 20.9665 37.1333 21.0665 37.1667 21.2332L49.3333 55.5666C49.4333 55.9299 49.3333 56.0999 49 56.0999ZM60.3333 55.5999C60.3333 55.9666 60.2033 56.1332 59.9033 56.1332H53.3667C53.0333 56.1332 52.8667 55.9299 52.8667 55.5999V29.9332C52.8667 29.5999 53.0033 29.4665 53.3033 29.4665H59.9033C60.2033 29.4665 60.3333 29.6332 60.3333 29.9332V55.5999ZM59.6367 25.4999C58.8667 26.2999 57.7333 26.7332 56.6 26.6665C55.5 26.6999 54.4333 26.2665 53.63 25.4999C52.8633 24.6665 52.4633 23.5665 52.4967 22.4332C52.4633 21.2999 52.8967 20.2332 53.6933 19.4665C54.5 18.6999 55.5667 18.2999 56.6667 18.2999C57.97 18.2999 58.9633 18.6999 59.7 19.4665C60.4333 20.2665 60.8333 21.3332 60.8 22.4332C60.8333 23.5665 60.4333 24.6665 59.6367 25.4999Z" fill="#27292F"/>
</g>
<defs>
<clipPath id="clip0_7406_121">
<rect width="80" height="80" fill="white"/>
</clipPath>
</defs>
</svg>
