<svg width="80" height="80" viewBox="0 0 80 80" fill="none" xmlns="http://www.w3.org/2000/svg">
<g clip-path="url(#clip0_7402_233)">
<path d="M32.8333 28.0666C31.6 27.5666 30.2667 27.3666 28.9 27.3999C28.0333 27.3999 27.2667 27.3999 26.6333 27.4332C25.9667 27.3999 25.5 27.4332 25.2667 27.4666V38.6666C25.7333 38.6999 26.1667 38.7332 26.5667 38.7332H28.3333C29.6333 38.7332 30.9333 38.5332 32.1667 38.1332C33.2333 37.8332 34.1667 37.1999 34.9 36.3666C35.6 35.5332 35.9333 34.3999 35.9333 32.9332C35.9667 31.8999 35.7 30.8666 35.1667 29.9666C34.6 29.0999 33.8 28.4332 32.8333 28.0666ZM65.8333 0H14.1667C6.33333 0 0 6.33333 0 14.1667V65.8349C0 73.6682 6.33333 80.0016 14.1667 80.0016H65.8333C73.6667 80.0016 80 73.6682 80 65.8349V14.1667C80 6.33333 73.6667 0 65.8333 0ZM41.1967 39.8332C39.8667 41.6999 38 43.0999 35.8333 43.8999C33.5667 44.7332 31.0667 45.0332 28.3333 45.0332C27.5333 45.0332 27 45.0332 26.6667 44.9999C26.3333 44.9666 25.8667 44.9666 25.2333 44.9666V55.6632C25.2667 55.8966 25.1 56.0999 24.8667 56.1332H18.4C18.1333 56.1332 18 55.9966 18 55.6966V21.3999C18 21.1666 18.1 21.0332 18.3333 21.0332C18.9 21.0332 19.4333 21.0332 20.2 20.9999C21 20.9666 21.8333 20.9666 22.7333 20.9332C23.6333 20.8999 24.6 20.8999 25.6333 20.8666C26.6667 20.8332 27.6667 20.8332 28.6667 20.8332C31.4 20.8332 33.6667 21.1666 35.5333 21.8666C37.2 22.4332 38.7333 23.3666 40 24.5999C41.0667 25.6666 41.9 26.9666 42.4333 28.3999C42.93 29.7999 43.1967 31.2332 43.1967 32.7332C43.2 35.5999 42.5333 37.9666 41.1967 39.8332ZM64.8333 52.7999C63.9 54.1332 62.5967 55.1632 61.1 55.7699C59.4667 56.4666 57.4667 56.8299 55.0633 56.8299C53.5333 56.8299 52.03 56.6999 50.5333 56.3999C49.3667 56.1966 48.2 55.8332 47.1333 55.3332C46.9 55.2032 46.73 54.9699 46.7633 54.7032V48.9032C46.7633 48.8066 46.8 48.6699 46.9 48.6032C46.9967 48.5366 47.1 48.5699 47.2 48.6366C48.5 49.4032 49.8667 49.9399 51.3333 50.2699C52.5967 50.6032 53.93 50.7699 55.2667 50.7699C56.5333 50.7699 57.4333 50.5999 58.0333 50.2999C58.5667 50.0666 58.9333 49.4999 58.9333 48.8999C58.9333 48.4299 58.6667 47.9999 58.1333 47.5666C57.6 47.1366 56.5033 46.6366 54.87 45.9966C53.17 45.3966 51.6067 44.5966 50.1367 43.5999C49.1033 42.8632 48.24 41.8999 47.6 40.7666C47.07 39.6999 46.8033 38.5332 46.8367 37.3632C46.8367 35.9299 47.2367 34.5632 47.9733 33.3299C48.8067 31.9966 50.0367 30.9299 51.47 30.2632C53.0333 29.4666 55 29.0999 57.3667 29.0999C58.7333 29.0999 60.1333 29.1999 61.5 29.3999C62.5 29.5332 63.4667 29.7999 64.3667 30.1666C64.4967 30.1999 64.6333 30.3332 64.7 30.4666C64.7333 30.5999 64.7667 30.7332 64.7667 30.8666V36.2999C64.7667 36.4332 64.7 36.5666 64.6 36.6332C64.3 36.6999 64.1333 36.6999 64 36.6332C63 36.0999 61.9333 35.7332 60.8 35.4999C59.5667 35.2332 58.3333 35.0666 57.0667 35.0666C56.4 35.0332 55.7 35.1332 55.0633 35.2999C54.6333 35.3999 54.2633 35.6332 54.03 35.9666C53.8633 36.2332 53.7633 36.5666 53.7633 36.8666C53.7633 37.1666 53.8967 37.4666 54.1 37.7332C54.4 38.0999 54.7967 38.3999 55.2333 38.6332C55.9967 39.0332 56.8 39.3999 57.5967 39.7332C59.4 40.3332 61.1333 41.1666 62.7333 42.1666C63.8333 42.8632 64.7333 43.7999 65.3633 44.9332C65.8967 45.9932 66.1633 47.1666 66.13 48.3632C66.1667 49.9332 65.7 51.4966 64.8333 52.7999Z" fill="#27292F"/>
</g>
<defs>
<clipPath id="clip0_7402_233">
<rect width="80" height="80" fill="white"/>
</clipPath>
</defs>
</svg>
